<svg xmlns="http://www.w3.org/2000/svg" viewBox="0 0 88.42 52.28"><g data-name="Layer 2"><path d="M0 52.28l21.74-12.77L54 52.28l29.23-17.2 1.49 2.49 3.75-9.23-9.9-1.06L80 29.71l-3.56 2.09v-6.65A4.5 4.5 0 1072 19.89L64.3 0H17.76L10 19.89a4.49 4.49 0 10-4.42 5.26v22zm47-31.81a7 7 0 1114 0v.18H47v-.18zm25 13.85v.12l-8.78 5.2A6 6 0 1172 34.32zM20.5 4h41.06L68 20.65h-3.55v-.18a10.5 10.5 0 10-21 0v.18H14zM10.06 34.32a6 6 0 0111.67-1.95l-8.11 7.43a6 6 0 01-3.56-5.48z" fill="#242b2e" data-name="Layer 1"/></g></svg>